# xmcd
#
# Track frame offsets: 
#        150
#        9043
#        19533
#        32689
#        41923
#        54098
#        66403
#        75332
#        87534
#        98295
#        108847
#        118180
#        127484
#        139181
#        148926
#        160307
#        171934
#        180253
#        189886
#        201810
#        211492
#        222968
#
# Disc length: 3311 seconds
#
# Revision: 0
# Processed by: cddbd v1.5.2PL0 Copyright (c) Steve Scherf et al.
# Submitted via: ExactAudioCopy v0.99pb4
#
DISCID=2d0ced16
DTITLE=Various Artist - R&B Humdingers Volume 13
DYEAR=1965
DGENRE=R&B
TTITLE0=Ernie Williams - My Pretty Baby (Web 1106)
TTITLE1=Bill Parker Vocal - Jesse Palmer - All Day, All Night (GoldBan
TTITLE1=d 1110)
TTITLE2=Priscilla Bowman - I've Got News For You (Vee Jay 179)
TTITLE3=Frank Dalton and The Dalton Gang - Cruised (Mercury 71857)
TTITLE4=Jimmy McCracklin - Let's Do It (The Chicken Scratch) (Mercury 
TTITLE4=71516)
TTITLE5=Clarence "Gatemouth" Brown - Hurry Back Good News (Peacock)
TTITLE6=L.C. McKinley - Nit Wit (Bea and Baby 102)
TTITLE7=Jimmy Beck Orchestra - Arabian Blues (Zil 9004)
TTITLE8=The Blue Chips - The Contest (RCA 7923)
TTITLE9=Lattimore Brown - Got Plenty Troubles (Zil 9005)
TTITLE10=Claude Robinson - Cotton Pickin' Mama (Studio 1002)
TTITLE11=Freddie Scott and The Chimes - Letter Came This Morning (Arrow 
TTITLE11=724)
TTITLE12=Billy Tate - Right From Wrong (Peacock 1671)
TTITLE13=Snooks Eaglin - Yours Truly (Imperial 45)
TTITLE14=The Citations - The Stomp (Mercury 72286)
TTITLE15=Otis Smith - You're So Good Looking (Jin 112)
TTITLE16=Tony and The Masquins - Fuji Womma (Ruthie 101)
TTITLE17=Johnny Otis - Let's Rock (Let's Surf Awhile) (King)
TTITLE18=Bobby Elvin - Blind Boy (Drexel 910)
TTITLE19=Gene Franklin and His Houserockin' Spacemen - Hackensack (Alton
TTITLE19=400)
TTITLE20=The Five Stars - Hey Juanita (Blues Boy Kingdom 106)
TTITLE21=Cornbread and Biscuits - Big Time Spender Pts 1&2 (Maske 102)
EXTD=
EXTT0=
EXTT1=
EXTT2=
EXTT3=
EXTT4=
EXTT5=
EXTT6=
EXTT7=
EXTT8=
EXTT9=
EXTT10=
EXTT11=
EXTT12=
EXTT13=
EXTT14=
EXTT15=
EXTT16=
EXTT17=
EXTT18=
EXTT19=
EXTT20=
EXTT21=
PLAYORDER=
